<svg width="942" height="168" viewBox="0 0 942 168" fill="none" xmlns="http://www.w3.org/2000/svg">
<g clip-path="url(#clip0_2_21)">
<path d="M78.456 83.696V140.648C78.456 142.496 78.12 143 76.104 143H59.472C57.456 143 57.12 142.496 57.12 140.648V88.904C57.12 82.52 56.28 74.792 47.712 74.792C40.656 74.792 35.616 79.832 33.432 81.848V140.648C33.432 142.496 33.096 143 31.08 143H14.448C12.432 143 12.096 142.496 12.096 140.648V27.752C12.096 25.232 13.272 25.232 15.288 24.728L29.4 21.872C29.904 21.872 31.416 21.368 31.752 21.368C33.096 21.368 33.432 22.04 33.432 24.896V66.728C37.968 63.032 44.688 57.152 56.616 57.152C74.424 57.152 78.456 69.08 78.456 83.696ZM161.298 139.976L148.53 145.184C147.858 145.352 147.018 145.856 146.346 145.856C144.834 145.856 142.314 139.976 141.474 135.776C138.114 139.136 132.234 145.856 119.634 145.856C104.178 145.856 94.4344 135.776 94.4344 119.984C94.4344 91.592 125.01 91.592 138.282 91.592V86.384C138.282 78.824 136.938 73.952 126.354 73.952C116.946 73.952 107.706 78.992 105.522 78.992C104.682 78.992 104.01 77.984 103.842 77.312L100.482 67.064C100.146 66.392 99.9784 65.72 99.9784 65.048C99.9784 61.184 116.61 57.152 129.546 57.152C150.546 57.152 158.442 66.728 158.442 84.2V116.624C158.442 132.92 162.81 135.104 162.81 138.464C162.81 139.136 162.138 139.64 161.298 139.976ZM138.282 123.848V105.368C134.082 105.368 114.594 104.024 114.594 118.808C114.594 125.36 119.298 130.232 125.682 130.232C131.898 130.232 136.266 125.864 138.282 123.848ZM287.541 83.696V140.648C287.541 142.496 287.205 143 285.189 143H268.557C266.541 143 266.205 142.496 266.205 140.648V88.904C266.205 82.52 265.533 74.792 259.149 74.792C252.093 74.792 246.549 79.664 244.365 81.68V140.648C244.365 142.496 244.029 143 242.013 143H225.381C223.365 143 223.029 142.496 223.029 140.648V88.904C223.029 82.52 222.357 74.792 215.973 74.792C208.917 74.792 203.373 79.664 201.189 81.68V140.648C201.189 142.496 200.853 143 198.837 143H182.205C180.189 143 179.853 142.496 179.853 140.648V89.912C179.853 66.224 176.661 67.568 176.661 63.704C176.661 62.864 177.333 62.192 178.509 61.856L191.277 57.656C192.285 57.32 193.125 57.152 193.797 57.152C195.981 57.152 197.325 60.848 199.173 68.744C204.213 64.376 211.605 57.152 224.877 57.152C232.101 57.152 239.997 61.688 242.013 68.744C247.053 64.376 254.277 57.152 268.053 57.152C283.845 57.152 287.541 69.08 287.541 83.696ZM369.579 139.976L356.811 145.184C356.139 145.352 355.299 145.856 354.627 145.856C353.115 145.856 350.595 139.976 349.755 135.776C346.395 139.136 340.515 145.856 327.915 145.856C312.459 145.856 302.715 135.776 302.715 119.984C302.715 91.592 333.291 91.592 346.563 91.592V86.384C346.563 78.824 345.219 73.952 334.635 73.952C325.227 73.952 315.987 78.992 313.803 78.992C312.963 78.992 312.291 77.984 312.123 77.312L308.763 67.064C308.427 66.392 308.259 65.72 308.259 65.048C308.259 61.184 324.891 57.152 337.827 57.152C358.827 57.152 366.723 66.728 366.723 84.2V116.624C366.723 132.92 371.091 135.104 371.091 138.464C371.091 139.136 370.419 139.64 369.579 139.976ZM346.563 123.848V105.368C342.363 105.368 322.875 104.024 322.875 118.808C322.875 125.36 327.579 130.232 333.963 130.232C340.179 130.232 344.547 125.864 346.563 123.848ZM444.918 128.888L440.046 140.816C439.542 142.16 438.366 143 437.694 143H381.75C380.742 143 380.07 142.328 380.07 141.32V128.72L418.71 77.648H384.774C383.934 77.648 383.598 76.64 383.598 75.464V62.36C383.598 60.68 384.102 60.008 385.95 60.008H439.206C440.55 60.008 442.062 60.68 442.062 61.688V74.792L404.094 125.36H442.398C445.59 125.36 445.59 126.536 445.59 127.04C445.59 127.88 445.086 128.552 444.918 128.888ZM609.782 81.68V140.648C609.782 142.496 609.446 143 607.43 143H590.798C588.782 143 588.446 142.496 588.446 140.648V88.904C588.446 82.52 587.606 74.792 579.038 74.792C571.982 74.792 566.438 79.664 564.254 81.68V140.648C564.254 142.496 563.918 143 561.902 143H545.27C543.254 143 542.918 142.496 542.918 140.648V89.912C542.918 66.224 539.726 67.568 539.726 63.704C539.726 62.864 540.398 62.192 541.574 61.856L554.342 57.656C555.35 57.32 556.19 57.152 556.862 57.152C559.046 57.152 560.39 60.848 562.238 68.744C567.11 64.376 574.67 57.152 587.942 57.152C597.182 57.152 609.782 61.352 609.782 81.68ZM656.505 133.592C656.505 140.144 651.297 145.352 644.745 145.352C638.361 145.352 632.985 140.144 632.985 133.592C632.985 127.04 638.361 121.832 644.745 121.832C651.297 121.832 656.505 127.04 656.505 133.592ZM731.92 128.216L734.776 135.272C734.944 135.776 735.28 136.112 735.28 136.616C735.28 138.464 721.168 145.352 708.736 145.352C688.744 145.352 677.152 129.728 677.152 105.2C677.152 77.144 690.592 60.008 711.256 60.008C722.512 60.008 735.448 67.904 735.448 70.424C735.448 70.928 735.112 71.264 734.944 71.768L731.08 78.824C730.744 79.328 730.576 79.832 730.072 79.832C729.4 79.832 722.176 71.264 712.264 71.264C695.8 71.264 690.928 83.528 690.928 102.68C690.928 117.968 693.952 134.096 710.248 134.096C721.168 134.096 729.904 127.208 730.912 127.208C731.416 127.208 731.584 127.712 731.92 128.216ZM813.195 102.176C813.195 125.696 803.283 145.352 778.755 145.352C756.075 145.352 746.331 127.04 746.331 103.016C746.331 79.832 756.075 60.008 780.435 60.008C803.451 60.008 813.195 78.488 813.195 102.176ZM779.931 134.936C794.883 134.936 799.419 121.328 799.419 102.008C799.419 85.544 794.883 70.424 779.763 70.424C764.643 70.424 760.107 84.872 760.107 101.504C760.107 120.656 764.475 134.936 779.931 134.936ZM834.531 140.984V83.36C834.531 79.496 834.363 75.464 833.523 71.6C832.683 67.736 831.339 66.728 831.339 65.888C831.339 65.552 831.507 65.216 832.179 64.712L839.403 60.68C839.739 60.512 840.411 60.008 840.915 60.008C843.435 60.008 845.283 68.744 845.451 69.92C849.819 65.888 860.235 60.008 867.291 60.008C878.211 60.008 882.915 63.368 885.099 70.088C890.139 66.392 899.211 60.008 907.275 60.008C925.923 60.008 927.267 73.112 927.267 85.208V140.984C927.267 142.328 926.595 143 925.251 143H916.515C915.171 143 914.499 142.328 914.499 140.984V84.872C914.499 77.648 912.651 71.264 903.747 71.264C895.683 71.264 890.643 75.8 887.283 78.152V140.984C887.283 142.328 886.611 143 885.267 143H876.531C875.187 143 874.515 142.328 874.515 140.984V84.872C874.515 77.648 872.667 71.264 863.595 71.264C856.035 71.264 850.155 75.968 847.299 78.32V140.984C847.299 142.328 846.627 143 845.283 143H836.547C835.203 143 834.531 142.328 834.531 140.984Z" fill="black"/>
<path d="M532 101.609C532 124.597 514.09 143.234 492 143.234C469.906 143.234 452 124.597 452 101.609C452 78.621 469.906 59.984 492 59.984C514.09 59.984 532 78.621 532 101.609Z" fill="#FCE2EE"/>
<path d="M532 101.609C532 124.597 514.09 143.234 492 143.234C469.906 143.234 452 124.597 452 101.609C452 78.621 469.906 59.984 492 59.984C514.09 59.984 532 78.621 532 101.609Z" stroke="#FB96C6"/>
<path d="M517.977 113.75C517.977 123.082 506.348 130.644 492 130.644C477.649 130.644 466.016 123.082 466.016 113.75C466.016 104.421 477.649 96.859 492 96.859C506.348 96.859 517.977 104.421 517.977 113.75Z" fill="#FB96C6"/>
<path d="M478.129 115.984C478.129 118.043 480.32 119.711 483.027 119.711C485.734 119.711 487.926 118.043 487.926 115.984C487.926 113.921 485.734 112.254 483.027 112.254C480.32 112.254 478.129 113.921 478.129 115.984Z" fill="#AF5780"/>
<path d="M493.902 115.984C493.902 118.043 496.094 119.711 498.801 119.711C501.508 119.711 503.699 118.043 503.699 115.984C503.699 113.921 501.508 112.254 498.801 112.254C496.094 112.254 493.902 113.921 493.902 115.984Z" fill="#AF5780"/>
<path d="M505.926 59.984L521.731 56.535L524.426 71.234L505.926 59.984Z" fill="#FCE2EE" stroke="#FB96C6"/>
<path d="M459.477 71.765L461.68 56L473.727 61.859L459.477 71.765Z" fill="#FCE2EE" stroke="#FB96C6"/>
<path d="M461.352 67.992L462.5 59.777L471.442 62.132L461.352 67.992Z" fill="#AF5780"/>
<path d="M520.539 67.414L509.848 61.047L519.637 58.414L520.539 67.414Z" fill="#AF5780"/>
<path d="M488.727 85.859C488.727 86.964 487.832 87.859 486.727 87.859C485.621 87.859 484.723 86.964 484.723 85.859C484.723 84.754 485.621 83.859 486.727 83.859C487.832 83.859 488.727 84.754 488.727 85.859Z" fill="black"/>
<path d="M497.906 85.859C497.906 86.964 497.012 87.859 495.902 87.859C494.801 87.859 493.902 86.964 493.902 85.859C493.902 84.754 494.801 83.859 495.902 83.859C497.012 83.859 497.906 84.754 497.906 85.859Z" fill="black"/>
</g>
<defs>
<clipPath id="clip0_2_21">
<rect width="942" height="168" fill="white"/>
</clipPath>
</defs>
</svg>
