<svg xmlns="http://www.w3.org/2000/svg" version="1.1" xmlns:xlink="http://www.w3.org/1999/xlink" width="1000" height="1000"><g clip-path="url(#SvgjsClipPath1783)"><rect width="1000" height="1000" fill="#daf2ff"></rect><g transform="matrix(10.227272727272727,0,0,10.227272727272727,90.90909090909093,50)"><svg xmlns="http://www.w3.org/2000/svg" version="1.1" xmlns:xlink="http://www.w3.org/1999/xlink" width="80" height="88"><svg width="80" height="88" viewBox="0 0 80 88" fill="none" xmlns="http://www.w3.org/2000/svg">
<g clip-path="url(#clip0_2_20)">
<path d="M80 45.609C80 68.597 62.09 87.234 40 87.234C17.906 87.234 0 68.597 0 45.609C0 22.621 17.906 3.98401 40 3.98401C62.09 3.98401 80 22.621 80 45.609Z" fill="#FCE2EE"></path>
<path d="M80 45.609C80 68.597 62.09 87.234 40 87.234C17.906 87.234 0 68.597 0 45.609C0 22.621 17.906 3.98401 40 3.98401C62.09 3.98401 80 22.621 80 45.609Z" stroke="#FB96C6"></path>
<path d="M65.977 57.75C65.977 67.082 54.348 74.644 40 74.644C25.649 74.644 14.016 67.082 14.016 57.75C14.016 48.421 25.649 40.859 40 40.859C54.348 40.859 65.977 48.421 65.977 57.75Z" fill="#FB96C6"></path>
<path d="M26.129 59.984C26.129 62.043 28.32 63.711 31.027 63.711C33.734 63.711 35.926 62.043 35.926 59.984C35.926 57.921 33.734 56.254 31.027 56.254C28.32 56.254 26.129 57.921 26.129 59.984Z" fill="#AF5780"></path>
<path d="M41.902 59.984C41.902 62.043 44.094 63.711 46.801 63.711C49.508 63.711 51.699 62.043 51.699 59.984C51.699 57.921 49.508 56.254 46.801 56.254C44.094 56.254 41.902 57.921 41.902 59.984Z" fill="#AF5780"></path>
<path d="M53.926 3.98401L69.731 0.535004L72.426 15.234L53.926 3.98401Z" fill="#FCE2EE" stroke="#FB96C6"></path>
<path d="M7.47699 15.765L9.67999 0L21.727 5.85901L7.47699 15.765Z" fill="#FCE2EE" stroke="#FB96C6"></path>
<path d="M9.35199 11.992L10.5 3.77698L19.442 6.13199L9.35199 11.992Z" fill="#AF5780"></path>
<path d="M68.539 11.414L57.848 5.047L67.637 2.414L68.539 11.414Z" fill="#AF5780"></path>
<path d="M36.727 29.859C36.727 30.964 35.832 31.859 34.727 31.859C33.621 31.859 32.723 30.964 32.723 29.859C32.723 28.754 33.621 27.859 34.727 27.859C35.832 27.859 36.727 28.754 36.727 29.859Z" fill="black"></path>
<path d="M45.906 29.859C45.906 30.964 45.012 31.859 43.902 31.859C42.801 31.859 41.902 30.964 41.902 29.859C41.902 28.754 42.801 27.859 43.902 27.859C45.012 27.859 45.906 28.754 45.906 29.859Z" fill="black"></path>
</g>
<defs>
<clipPath id="clip0_2_20">
<rect width="80" height="87.234" fill="white"></rect>
</clipPath>
<clipPath id="SvgjsClipPath1783"><rect width="1000" height="1000" x="0" y="0" rx="500" ry="500"></rect></clipPath></defs>
</svg></svg></g></g></svg>